<mxfile host="Electron" modified="2024-06-21T13:17:02.798Z" agent="Mozilla/5.0 (Windows NT 10.0; Win64; x64) AppleWebKit/537.36 (KHTML, like Gecko) draw.io/24.5.3 Chrome/124.0.6367.207 Electron/30.0.6 Safari/537.36" etag="y9EEdlCbYU6UA14wXa0i" version="24.5.3" type="device">
  <diagram name="Page-1" id="JM4bKOWMVSVO4Yr8zpsC">
    <mxGraphModel dx="988" dy="574" grid="1" gridSize="39.370000000000005" guides="1" tooltips="1" connect="1" arrows="1" fold="1" page="1" pageScale="1" pageWidth="8000" pageHeight="8000" math="0" shadow="0">
      <root>
        <mxCell id="0" />
        <mxCell id="1" parent="0" />
      </root>
    </mxGraphModel>
  </diagram>
</mxfile>
